# xmcd
#
# Track frame offsets:
#	150
#	9512
#	22600
#	35705
#	47305
#	61907
#	72522
#	89037
#	100097
#	117177
#	127927
#	141700
#
# Disc length: 2057 seconds
#
# Revision: 2
# Processed by: cddbd v1.5.2PL0 Copyright (c) Steve Scherf et al.
# Submitted via: audiograbber 1.83.01
#
DISCID=9e08070c
DTITLE=Various Artist - American Country Legends Of Country Music
DYEAR=1900
DGENRE=Country
TTITLE0=Charlie Pride - Kiss An Angel Good Mornin'
TTITLE1=Sonny James - Since I Met You Baby
TTITLE2=Vince Gill - Everybody's Sweetheart
TTITLE3=Johnny Cash - Big River
TTITLE4=Tom T. Hall - What Have You Got To Lose
TTITLE5=Ferlin Husky - Wings Of A Dove
TTITLE6=Ronnie Milsap - It Was Almost Like A Song
TTITLE7=Faron Young - Hello Walls
TTITLE8=Jerry Lee Lewis - Over The Rainbow
TTITLE9=Conway twitty - It's Only Make Believe
TTITLE10=Jim Reeves and Patsy Cline - Have You Ever Been Lonely (Have You Ever 
TTITLE10=Been Blue)
TTITLE11=Eddy Arnold - Then You Can Tell Me Goodbye
EXTD=
EXTT0=
EXTT1=
EXTT2=
EXTT3=
EXTT4=
EXTT5=
EXTT6=
EXTT7=
EXTT8=
EXTT9=
EXTT10=
EXTT11=
PLAYORDER=
